<svg width="60" height="60" viewBox="0 0 60 60" fill="none" xmlns="http://www.w3.org/2000/svg">
<path d="M17.334 46.6523C15.8345 46.6523 14.3873 46.5303 12.9924 46.2862C11.6324 46.0072 10.4991 45.6759 9.59242 45.2923C8.72062 44.8738 8.28472 44.4728 8.28472 44.0892C8.28472 43.1826 8.3719 41.8226 8.54626 40.0092C8.75549 38.1959 8.86011 35.9292 8.86011 33.2092V27.2985C8.86011 24.9969 8.94729 23.1313 9.12165 21.7015C9.33088 20.2369 9.54011 19.1036 9.74934 18.3015H7.97088L5.35549 14.7969L5.77395 13.96H10.1678C11.7022 13.96 13.1493 13.9426 14.5093 13.9077C15.8693 13.8728 17.0027 13.8554 17.9093 13.8554C18.8509 13.8554 19.8622 14.1692 20.9432 14.7969C22.0591 15.3897 23.0878 16.1569 24.0293 17.0985C25.0057 18.0051 25.7904 18.9641 26.3832 19.9754C27.0109 20.9867 27.3247 21.9108 27.3247 22.7477C27.3247 24.8749 27.2724 27.0544 27.1678 29.2862C27.0981 31.5179 27.0632 33.9241 27.0632 36.5046C27.0632 39.3292 26.6622 41.4738 25.8601 42.9385C25.0581 44.4031 23.9247 45.3969 22.4601 45.92C21.0304 46.4082 19.3216 46.6523 17.334 46.6523ZM19.6355 18.5108C18.7986 18.5108 18.014 18.5456 17.2816 18.6154C16.5842 18.6503 15.8345 18.7549 15.0324 18.9292C14.7883 19.8359 14.5791 20.9692 14.4047 22.3292C14.2304 23.6544 14.1432 25.1887 14.1432 26.9323V34.5169C14.1432 36.5046 14.1083 38.1087 14.0386 39.3292C14.0037 40.5497 13.9165 41.5785 13.777 42.4154C14.1955 42.52 14.7011 42.5723 15.294 42.5723C17.3863 42.5723 18.9729 41.9621 20.054 40.7415C21.135 39.4862 21.6755 37.3241 21.6755 34.2554C21.6755 32.4769 21.7104 30.7333 21.7801 29.0246C21.8499 27.281 21.9022 25.7118 21.937 24.3169C22.0068 22.9221 22.0416 21.8585 22.0416 21.1262C22.0416 20.2195 21.8499 19.5569 21.4663 19.1385C21.1175 18.72 20.5073 18.5108 19.6355 18.5108Z" fill="#337614"/>
<path d="M32.4195 44.7692C32.1734 44.7692 31.8759 44.7077 31.5272 44.5846C31.1785 44.4615 30.84 44.2974 30.5118 44.0923C30.1836 43.8872 29.9067 43.6513 29.6811 43.3846C29.4657 43.1179 29.358 42.8462 29.358 42.5692C29.358 42.4462 29.3734 42.0872 29.4041 41.4923C29.4452 40.8974 29.4657 40.1538 29.4657 39.2615C29.4657 38.5436 29.6759 38.0154 30.0965 37.6769C30.517 37.3385 31.1477 37.1692 31.9888 37.1692C32.2349 37.1692 32.5067 37.2462 32.8041 37.4C33.1118 37.5538 33.4041 37.7538 33.6811 38C33.958 38.2462 34.1836 38.5077 34.358 38.7846C34.5426 39.0513 34.6349 39.3026 34.6349 39.5385C34.6349 39.9282 34.6247 40.3487 34.6041 40.8C34.5939 41.2513 34.5888 41.8308 34.5888 42.5385C34.5888 43.1949 34.4093 43.7333 34.0503 44.1538C33.6913 44.5641 33.1477 44.7692 32.4195 44.7692ZM31.4349 43.4615C31.999 43.4615 32.4093 43.3436 32.6657 43.1077C32.9324 42.8718 33.0657 42.5231 33.0657 42.0615C33.0657 41.7333 33.0708 41.3641 33.0811 40.9538C33.0913 40.5333 33.1016 40.1487 33.1118 39.8C33.1221 39.441 33.1272 39.1897 33.1272 39.0462C33.1272 38.8718 33.0965 38.7436 33.0349 38.6615C32.9734 38.5692 32.8503 38.5231 32.6657 38.5231C32.1118 38.5231 31.6862 38.6205 31.3888 38.8154C31.1016 39 30.958 39.3538 30.958 39.8769C30.958 40.8615 30.9477 41.6051 30.9272 42.1077C30.9067 42.6 30.8965 42.9333 30.8965 43.1077C30.8965 43.3436 31.0759 43.4615 31.4349 43.4615ZM38.1886 44.8769C37.5117 44.6513 36.9989 44.441 36.6502 44.2462C36.3015 44.0513 36.1271 43.8923 36.1271 43.7692C36.1271 43.6564 36.1374 43.5385 36.1579 43.4154C36.1784 43.2923 36.1989 43.1128 36.2194 42.8769C36.2399 42.641 36.2502 42.3026 36.2502 41.8615V38.9385C36.2502 38.2615 36.2758 37.7128 36.3271 37.2923C36.3886 36.8615 36.4502 36.5282 36.5117 36.2923H35.9886L35.2194 35.2615L35.3425 35.0154H36.7886C37.1066 35.0051 37.4245 34.9949 37.7425 34.9846C38.0707 34.9641 38.3271 34.9538 38.5117 34.9538C38.7886 34.9538 39.0912 35.0359 39.4194 35.2C39.7579 35.3641 40.0758 35.5744 40.3733 35.8308C40.6809 36.0872 40.9322 36.3538 41.1271 36.6308C41.322 36.8974 41.4194 37.1333 41.4194 37.3385V38.7077C41.4194 39.5897 41.0348 40.2205 40.2656 40.6C41.0758 41.041 41.4809 41.5026 41.4809 41.9846C41.4809 42.2103 41.4758 42.4872 41.4656 42.8154C41.4553 43.1436 41.4502 43.4256 41.4502 43.6615C41.4502 43.8256 41.5066 43.9641 41.6194 44.0769C41.7322 44.1795 41.922 44.3026 42.1886 44.4462L41.9579 44.9077C41.2707 44.6103 40.7425 44.3538 40.3733 44.1385C40.004 43.9231 39.8194 43.6872 39.8194 43.4308C39.8194 43.1744 39.8297 42.9026 39.8502 42.6154C39.8707 42.3179 39.8809 42.0718 39.8809 41.8769C39.8809 41.5282 39.7374 41.2615 39.4502 41.0769C39.163 40.8821 38.7066 40.7846 38.0809 40.7846H37.804V42.2C37.804 42.641 37.7886 42.9949 37.7579 43.2615C37.7374 43.5179 37.7271 43.7179 37.7271 43.8615C37.7271 44.0359 37.9476 44.2256 38.3886 44.4308L38.1886 44.8769ZM39.2809 36.2923C39.0861 36.2923 38.8861 36.3026 38.6809 36.3231C38.4861 36.3333 38.2861 36.3538 38.0809 36.3846C38.0092 36.6615 37.9425 37.0051 37.8809 37.4154C37.8297 37.8154 37.804 38.2872 37.804 38.8308V39.4923H38.7579C39.1168 39.4923 39.3938 39.3692 39.5886 39.1231C39.7938 38.8667 39.8963 38.5026 39.8963 38.0308V37.1846C39.8963 36.8564 39.8502 36.6256 39.7579 36.4923C39.6656 36.359 39.5066 36.2923 39.2809 36.2923ZM45.2389 44.8462C44.562 44.6205 44.0491 44.4103 43.7004 44.2154C43.3517 44.0205 43.1773 43.8615 43.1773 43.7385C43.1773 43.6256 43.1876 43.5077 43.2081 43.3846C43.2286 43.2615 43.2491 43.0821 43.2697 42.8462C43.2902 42.6103 43.3004 42.2718 43.3004 41.8308V38.8615C43.3004 38.3692 43.3209 37.8872 43.362 37.4154C43.403 36.9436 43.4799 36.5692 43.5927 36.2923H43.0389L42.285 35.2615L42.3927 35.0154H44.362L45.2235 36.2154C45.1107 36.5333 45.0184 36.9231 44.9466 37.3846C44.885 37.8462 44.8543 38.3641 44.8543 38.9385V42.1692C44.8543 42.6103 44.8389 42.9641 44.8081 43.2308C44.7876 43.4872 44.7773 43.6872 44.7773 43.8308C44.7773 44.0051 44.9979 44.1949 45.4389 44.4L45.2389 44.8462ZM49.4539 44.7231C48.6231 44.7231 47.9513 44.4462 47.4385 43.8923C46.9257 43.3385 46.5462 42.5026 46.3001 41.3846L46.8231 41.2462C47.059 41.8103 47.3206 42.2308 47.6078 42.5077C47.9052 42.7744 48.2898 42.9077 48.7616 42.9077C49.1513 42.9077 49.5001 42.8205 49.8078 42.6462C50.1154 42.4718 50.3565 42.2359 50.5308 41.9385C50.7154 41.6308 50.8078 41.2923 50.8078 40.9231C50.8078 40.5333 50.6949 40.3385 50.4693 40.3385C50.2949 40.3385 50.0795 40.3692 49.8231 40.4308C49.577 40.4923 49.3308 40.5538 49.0847 40.6154C48.8385 40.6769 48.6385 40.7077 48.4847 40.7077C48.2795 40.7077 48.0642 40.6103 47.8385 40.4154C47.6129 40.2103 47.4026 39.9436 47.2078 39.6154C47.0129 39.2769 46.8539 38.9179 46.7308 38.5385C46.618 38.1487 46.5616 37.7692 46.5616 37.4C46.5616 36.5795 46.7821 35.959 47.2231 35.5385C47.6744 35.1077 48.2847 34.8923 49.0539 34.8923C50.3667 34.8923 51.2488 35.7385 51.7001 37.4308L51.177 37.5692C51.0129 37.2205 50.7872 36.9692 50.5001 36.8154C50.2129 36.6615 49.8898 36.5846 49.5308 36.5846C48.9667 36.5846 48.5257 36.7385 48.2078 37.0462C47.9001 37.3538 47.7462 37.8 47.7462 38.3846C47.7462 38.5795 47.777 38.7179 47.8385 38.8C47.9103 38.8821 47.9872 38.9231 48.0693 38.9231C48.2744 38.9231 48.5103 38.8821 48.777 38.8C49.0539 38.7179 49.3206 38.641 49.577 38.5692C49.8436 38.4872 50.059 38.4462 50.2231 38.4462C50.4385 38.4462 50.6693 38.5949 50.9154 38.8923C51.1616 39.1795 51.3719 39.5692 51.5462 40.0615C51.7308 40.5538 51.8231 41.0974 51.8231 41.6923C51.8231 42.6462 51.6334 43.3897 51.2539 43.9231C50.8744 44.4564 50.2744 44.7231 49.4539 44.7231Z" fill="#80AD52"/>
<circle cx="42.6923" cy="19" r="9.30769" fill="#ED6868"/>
</svg>
